<svg xmlns="http://www.w3.org/2000/svg" viewBox="0 0 256 256" style="enable-background:new 0 0 256 256" xml:space="preserve"><style>.st2{fill:none;stroke:#6b1d1d;stroke-width:.5;stroke-miterlimit:10}.st3{fill:#3a312a}.st4{fill:#87796f}.st8{fill:#f16c7a}.st9{fill:#8ac6dd}.st11{fill:#d6df58}.st21{fill:#8ac5dc}.st22{fill:#ef6d7a}</style><g id="Layer_1"><path class="st11" d="M48.063 26.073s3.408 12.659 13.222 13.246c0 0-13.1 4.525-13.321 14.202 0 0-2.578-13.572-12.925-14.059 0 .001 12.05-1.825 13.024-13.389z"/><path class="st3" d="M47.962 55.021a1.501 1.501 0 0 1-1.472-1.217c-.024-.125-2.495-12.418-11.523-12.844a1.5 1.5 0 0 1-.153-2.982c.441-.068 10.894-1.816 11.754-12.032a1.498 1.498 0 0 1 2.942-.265c.032.116 3.259 11.626 11.864 12.142a1.5 1.5 0 0 1 .401 2.914c-.121.042-12.118 4.311-12.313 12.819a1.5 1.5 0 0 1-1.5 1.465zm-7.74-15.729c3.878 1.969 6.23 5.746 7.587 8.877 2.027-4.022 5.942-6.787 8.949-8.428-4.134-1.842-6.783-5.651-8.334-8.723-1.793 4.361-5.272 6.869-8.202 8.274z"/><path class="st11" d="M26.365 43.054s2.411 8.954 9.352 9.369c0 0-9.266 3.201-9.422 10.045 0 0-1.824-9.6-9.142-9.944-.001.001 8.523-1.291 9.212-9.47z"/><path class="st3" d="M26.293 63.969a1.5 1.5 0 0 1-1.472-1.22c-.016-.082-1.704-8.442-7.74-8.727a1.5 1.5 0 0 1-.154-2.982c.296-.047 7.364-1.242 7.943-8.113a1.5 1.5 0 0 1 1.36-1.368 1.49 1.49 0 0 1 1.582 1.101c.022.079 2.228 7.92 7.994 8.266a1.5 1.5 0 0 1 .4 2.915c-.081.028-8.282 2.952-8.412 8.661a1.5 1.5 0 0 1-1.501 1.467zm-4.519-11.528c2.107 1.332 3.523 3.395 4.447 5.279 1.376-2.232 3.515-3.871 5.365-4.972-2.287-1.27-3.884-3.351-4.941-5.225-1.173 2.289-3.015 3.877-4.871 4.918z"/><path class="st11" d="M26.365 16.396s2.411 8.954 9.352 9.37c0 0-9.266 3.201-9.422 10.045 0 0-1.824-9.6-9.142-9.944-.001 0 8.523-1.291 9.212-9.471z"/><path class="st3" d="M26.293 37.312a1.5 1.5 0 0 1-1.473-1.22c-.016-.082-1.704-8.442-7.74-8.727a1.5 1.5 0 0 1-.154-2.981c.296-.047 7.364-1.242 7.943-8.113a1.5 1.5 0 0 1 2.942-.266c.022.079 2.228 7.92 7.993 8.265a1.499 1.499 0 0 1 .4 2.915c-.081.028-8.282 2.953-8.412 8.662a1.5 1.5 0 0 1-1.499 1.465zm-4.519-11.528c2.107 1.332 3.523 3.394 4.447 5.279 1.376-2.232 3.515-3.872 5.364-4.973-2.287-1.269-3.884-3.35-4.941-5.224-1.172 2.288-3.014 3.877-4.87 4.918z"/><path d="M81.237 187.482v34.317c0 9.833 7.971 17.805 17.805 17.805h121.895c9.833 0 17.805-7.971 17.805-17.805V49.658c0-9.833-7.971-17.805-17.805-17.805H99.042c-9.833 0-17.805 7.971-17.805 17.805V187.482z" style="fill:#fae6ca"/><path class="st3" d="M220.937 241.104H99.041c-10.644 0-19.305-8.66-19.305-19.305v-34.316a1.5 1.5 0 1 1 3 0v34.316c0 8.99 7.314 16.305 16.305 16.305h121.896c8.99 0 16.305-7.314 16.305-16.305V49.658c0-8.99-7.314-16.305-16.305-16.305H99.041c-8.99 0-16.305 7.314-16.305 16.305v124.566a1.5 1.5 0 1 1-3 0V49.658c0-10.645 8.66-19.305 19.305-19.305h121.896c10.644 0 19.305 8.66 19.305 19.305v172.141c0 10.644-8.661 19.305-19.305 19.305z"/><path class="st21" d="M181.039 72.354h57.866V49.658c0-9.833-7.971-17.805-17.805-17.805H99.204c-9.833 0-17.805 7.971-17.805 17.805v22.695h99.64z"/><path class="st3" d="M238.904 73.854h-57.866a1.5 1.5 0 1 1 0-3h56.366V49.658c0-8.99-7.314-16.305-16.305-16.305H99.205c-8.99 0-16.305 7.314-16.305 16.305v21.195h85.365a1.5 1.5 0 1 1 0 3H81.4a1.5 1.5 0 0 1-1.5-1.5V49.658c0-10.645 8.66-19.305 19.305-19.305H221.1c10.645 0 19.305 8.66 19.305 19.305v22.695a1.502 1.502 0 0 1-1.501 1.501z"/><path class="st4" d="M91.943 43.37V22.088a5.5 5.5 0 0 1 5.5-5.5h.455a5.5 5.5 0 0 1 5.5 5.5V43.37a5.5 5.5 0 0 1-5.5 5.5h-.455a5.5 5.5 0 0 1-5.5-5.5z"/><path class="st3" d="M97.898 50.369h-.455c-3.86 0-7-3.141-7-7V22.088c0-3.859 3.14-7 7-7h.455c3.86 0 7 3.141 7 7v21.281c0 3.86-3.14 7-7 7zm-.455-32.281c-2.206 0-4 1.794-4 4v21.281c0 2.206 1.794 4 4 4h.455c2.206 0 4-1.794 4-4V22.088c0-2.206-1.794-4-4-4h-.455z"/><path class="st4" d="M116.936 43.37V22.088a5.5 5.5 0 0 1 5.5-5.5h.455a5.5 5.5 0 0 1 5.5 5.5V43.37a5.5 5.5 0 0 1-5.5 5.5h-.455a5.5 5.5 0 0 1-5.5-5.5z"/><path class="st3" d="M122.891 50.369h-.455c-3.86 0-7-3.141-7-7V22.088c0-3.859 3.14-7 7-7h.455c3.86 0 7 3.141 7 7v21.281c0 3.86-3.141 7-7 7zm-.455-32.281c-2.206 0-4 1.794-4 4v21.281c0 2.206 1.794 4 4 4h.455c2.206 0 4-1.794 4-4V22.088c0-2.206-1.794-4-4-4h-.455z"/><path class="st4" d="M141.928 43.37V22.088a5.5 5.5 0 0 1 5.5-5.5h.455a5.5 5.5 0 0 1 5.5 5.5V43.37a5.5 5.5 0 0 1-5.5 5.5h-.455a5.5 5.5 0 0 1-5.5-5.5z"/><path class="st3" d="M147.883 50.369h-.455c-3.86 0-7-3.141-7-7V22.088c0-3.859 3.14-7 7-7h.455c3.86 0 7 3.141 7 7v21.281c0 3.86-3.14 7-7 7zm-.455-32.281c-2.206 0-4 1.794-4 4v21.281c0 2.206 1.794 4 4 4h.455c2.206 0 4-1.794 4-4V22.088c0-2.206-1.794-4-4-4h-.455z"/><path class="st4" d="M166.921 43.37V22.088a5.5 5.5 0 0 1 5.5-5.5h.455a5.5 5.5 0 0 1 5.5 5.5V43.37a5.5 5.5 0 0 1-5.5 5.5h-.455a5.5 5.5 0 0 1-5.5-5.5z"/><path class="st3" d="M172.875 50.369h-.455c-3.86 0-7-3.141-7-7V22.088c0-3.859 3.14-7 7-7h.455c3.86 0 7 3.141 7 7v21.281c0 3.86-3.14 7-7 7zm-.454-32.281c-2.206 0-4 1.794-4 4v21.281c0 2.206 1.794 4 4 4h.455c2.206 0 4-1.794 4-4V22.088c0-2.206-1.794-4-4-4h-.455z"/><path class="st4" d="M191.913 43.37V22.088a5.5 5.5 0 0 1 5.5-5.5h.455a5.5 5.5 0 0 1 5.5 5.5V43.37a5.5 5.5 0 0 1-5.5 5.5h-.455a5.5 5.5 0 0 1-5.5-5.5z"/><path class="st3" d="M197.868 50.369h-.455c-3.86 0-7-3.141-7-7V22.088c0-3.859 3.14-7 7-7h.455c3.86 0 7 3.141 7 7v21.281c0 3.86-3.14 7-7 7zm-.455-32.281c-2.206 0-4 1.794-4 4v21.281c0 2.206 1.794 4 4 4h.455c2.205 0 4-1.794 4-4V22.088c0-2.206-1.795-4-4-4h-.455z"/><path class="st4" d="M216.906 43.37V22.088a5.5 5.5 0 0 1 5.5-5.5h.455a5.5 5.5 0 0 1 5.5 5.5V43.37a5.5 5.5 0 0 1-5.5 5.5h-.455a5.5 5.5 0 0 1-5.5-5.5z"/><path class="st3" d="M222.861 50.369h-.455c-3.86 0-7-3.141-7-7V22.088c0-3.859 3.14-7 7-7h.455c3.859 0 7 3.141 7 7v21.281c-.001 3.86-3.141 7-7 7zm-.455-32.281c-2.206 0-4 1.794-4 4v21.281c0 2.206 1.794 4 4 4h.455c2.206 0 4-1.794 4-4V22.088c0-2.206-1.794-4-4-4h-.455z"/><path class="st22" d="m112.795 71.523 3.235-6.4a9.377 9.377 0 0 0-16.738-8.46l-3.235 6.4 16.738 8.46z"/><path class="st3" d="M112.794 73.022c-.228 0-.459-.052-.676-.161L95.38 64.402a1.5 1.5 0 0 1-.662-2.016l3.234-6.4c2.705-5.352 9.259-7.507 14.615-4.801a10.806 10.806 0 0 1 5.427 6.312 10.809 10.809 0 0 1-.626 8.302l-3.234 6.399a1.497 1.497 0 0 1-1.34.824zM98.073 62.401l14.061 7.105 2.558-5.061a7.83 7.83 0 0 0 .454-6.012 7.825 7.825 0 0 0-3.931-4.571c-3.876-1.961-8.625-.4-10.584 3.477l-2.558 5.062z"/><path class="st21" d="m112.795 71.523-76.382 149.9-16.738-8.46 76.382-149.9z"/><path class="st3" d="M36.412 222.923c-.228 0-.458-.052-.676-.161l-16.738-8.46a1.504 1.504 0 0 1-.66-2.019l76.383-149.9a1.498 1.498 0 0 1 2.013-.658l16.738 8.459a1.5 1.5 0 0 1 .66 2.019l-76.383 149.9c-.265.521-.792.82-1.337.82zm-14.718-10.62 14.061 7.107 75.021-147.228-14.061-7.106-75.021 147.227z"/><path class="st22" d="m57.741 138.259-38.066 74.704 16.738 8.46 38.066-74.704z"/><path class="st3" d="M36.412 222.923c-.228 0-.458-.052-.676-.161l-16.738-8.46a1.504 1.504 0 0 1-.66-2.019l38.066-74.704a1.5 1.5 0 0 1 2.013-.658l16.738 8.46a1.5 1.5 0 0 1 .66 2.019l-38.066 74.704a1.5 1.5 0 0 1-1.337.819zm-14.718-10.62 14.061 7.107 36.705-72.031-14.061-7.107-36.705 72.031z"/><path class="st11" d="m36.413 221.423-16.738-8.46-2.579 25.891z"/><path class="st3" d="M17.095 240.354a1.5 1.5 0 0 1-1.492-1.648l2.579-25.891a1.5 1.5 0 0 1 2.17-1.191l16.738 8.46a1.502 1.502 0 0 1 .328 2.452l-19.317 17.431a1.498 1.498 0 0 1-1.006.387zm3.856-25.066-1.978 19.851 14.811-13.364-12.833-6.487z"/><path d="M222.242 73.854v147.95c0 8.99-7.31 16.3-16.3 16.3h15c8.99 0 16.3-7.31 16.3-16.3V73.854h-15z" style="fill:#decaad"/><path d="M237.402 49.654v21.2h-15v-20.48h.46c3.86 0 7-3.14 7-7v-7.44c4.53 2.9 7.54 7.96 7.54 13.72z" style="fill:#6ca8bf"/><path class="st8" d="M209.751 127.05a5.896 5.896 0 0 1-1.425 3.855l-5.426 6.313a5.786 5.786 0 0 1-2.225 1.606 52.143 52.143 0 0 0-7.663-7.85 5.69 5.69 0 0 1 .917-1.466l5.426-6.313a5.917 5.917 0 0 1 8.34-.631 5.89 5.89 0 0 1 2.056 4.486z"/><path class="st3" d="M200.675 140.324c-.45 0-.887-.202-1.178-.571a50.71 50.71 0 0 0-7.441-7.623 1.5 1.5 0 0 1-.423-1.745 7.2 7.2 0 0 1 1.158-1.854l5.426-6.313c2.658-3.096 7.348-3.452 10.454-.793a7.403 7.403 0 0 1 2.58 5.625c0 1.774-.635 3.49-1.788 4.832l-5.426 6.313a7.23 7.23 0 0 1-2.799 2.019c-.182.074-.374.11-.563.11zm-5.736-9.681a53.676 53.676 0 0 1 6.114 6.263c.257-.191.493-.412.707-.662l5.428-6.316a4.417 4.417 0 0 0 1.063-2.877 4.407 4.407 0 0 0-1.533-3.348c-1.849-1.582-4.642-1.373-6.225.47l-5.426 6.314a3.784 3.784 0 0 0-.128.156z"/><circle class="st4" cx="160.189" cy="170.659" r="51.498"/><path class="st3" d="M160.189 223.656c-29.223 0-52.998-23.774-52.998-52.998s23.774-52.998 52.998-52.998c29.224 0 52.998 23.774 52.998 52.998s-23.774 52.998-52.998 52.998zm0-102.996c-27.569 0-49.998 22.429-49.998 49.998s22.429 49.998 49.998 49.998 49.998-22.429 49.998-49.998-22.429-49.998-49.998-49.998z"/><path d="M125.763 146.157a42.056 42.056 0 0 0-7.838 24.502c0 23.342 18.922 42.264 42.264 42.264s42.264-18.922 42.264-42.264-18.922-42.264-42.264-42.264c-11.126 0-21.242 4.306-28.789 11.334l-5.637 6.428z" style="fill:#d7e057"/><path class="st3" d="M160.189 214.422c-24.131 0-43.763-19.632-43.763-43.764 0-9.152 2.807-17.926 8.117-25.372.029-.041.06-.08.093-.118l5.636-6.429a1.35 1.35 0 0 1 .106-.108 43.613 43.613 0 0 1 29.811-11.736c24.131 0 43.764 19.632 43.764 43.764s-19.633 43.763-43.764 43.763zm-33.247-67.333a40.467 40.467 0 0 0-7.516 23.569c0 22.477 18.286 40.764 40.763 40.764 22.477 0 40.764-18.286 40.764-40.764s-18.287-40.764-40.764-40.764a40.618 40.618 0 0 0-27.712 10.881l-5.535 6.314z"/><path class="st9" d="M167.18 107.56v12.271a51.166 51.166 0 0 0-6.991-.473c-2.371 0-4.708.158-6.991.473V107.56h13.982z"/><path class="st3" d="M167.18 121.331a1.57 1.57 0 0 1-.205-.014 50.474 50.474 0 0 0-13.572 0 1.5 1.5 0 0 1-1.705-1.486V107.56a1.5 1.5 0 0 1 1.5-1.5h13.982a1.5 1.5 0 0 1 1.5 1.5v12.271a1.5 1.5 0 0 1-1.5 1.5zm-6.991-3.474c1.847 0 3.686.095 5.491.282v-9.079h-10.982v9.079a53.392 53.392 0 0 1 5.491-.282z"/><path class="st9" d="M150.954 91.854h-5.216a4.992 4.992 0 0 0-4.992 4.992v5.532a4.992 4.992 0 0 0 4.992 4.992h28.904a4.992 4.992 0 0 0 4.992-4.992v-5.532a4.992 4.992 0 0 0-4.992-4.992h-23.688z"/><path class="st3" d="M174.641 108.869h-28.904a6.499 6.499 0 0 1-6.492-6.492v-5.531a6.499 6.499 0 0 1 6.492-6.492h28.904a6.499 6.499 0 0 1 6.492 6.492v5.531a6.499 6.499 0 0 1-6.492 6.492zm-28.904-15.515a3.496 3.496 0 0 0-3.492 3.492v5.531a3.495 3.495 0 0 0 3.492 3.492h28.904a3.496 3.496 0 0 0 3.492-3.492v-5.531a3.495 3.495 0 0 0-3.492-3.492h-28.904zM160.189 132.02a.835.835 0 0 0-.835.835v1.697a.835.835 0 0 0 1.67 0v-1.697a.835.835 0 0 0-.835-.835zM160.189 205.892a.835.835 0 0 0-.835.835v1.697a.835.835 0 0 0 1.67 0v-1.697a.835.835 0 0 0-.835-.835zM198.809 170.639a.835.835 0 0 0-.835-.835h-1.697a.835.835 0 0 0 0 1.67h1.697a.834.834 0 0 0 .835-.835zM124.937 170.639a.835.835 0 0 0-.835-.835h-1.697a.835.835 0 0 0 0 1.67h1.697a.834.834 0 0 0 .835-.835zM187.497 143.331a.835.835 0 0 0-1.181 0l-1.2 1.2a.835.835 0 0 0 1.181 1.181l1.2-1.2a.835.835 0 0 0 0-1.181zM135.262 195.567a.835.835 0 0 0-1.181 0l-1.2 1.2a.835.835 0 0 0 1.181 1.181l1.2-1.2a.835.835 0 0 0 0-1.181zM187.497 197.948a.835.835 0 0 0 0-1.181l-1.2-1.2a.835.835 0 0 0-1.181 1.181l1.2 1.2a.835.835 0 0 0 1.181 0zM135.262 145.712a.835.835 0 0 0 0-1.181l-1.2-1.2a.835.835 0 0 0-1.181 1.181l1.2 1.2a.834.834 0 0 0 1.181 0z"/><path class="st3" d="M187.496 197.947a.835.835 0 0 1-1.182 0l-1.197-1.197a.834.834 0 0 1 0-1.181.834.834 0 0 1 1.181 0l1.197 1.197a.833.833 0 0 1 .001 1.181z"/><path class="st8" d="M157.129 157.986v7.944a5.607 5.607 0 0 1 3.06-.905c1.127 0 2.178.333 3.06.905v-23.987a3.06 3.06 0 1 0-6.12 0v16.043z"/><path class="st3" d="M163.249 167.43c-.285 0-.57-.081-.817-.242-1.335-.868-3.151-.868-4.486 0a1.5 1.5 0 0 1-2.318-1.257v-23.987a4.565 4.565 0 0 1 4.56-4.56 4.566 4.566 0 0 1 4.561 4.56v23.987a1.498 1.498 0 0 1-1.5 1.499zm-3.06-3.906a7.2 7.2 0 0 1 1.561.172v-21.754a1.561 1.561 0 0 0-3.121 0v21.754a7.13 7.13 0 0 1 1.56-.172z"/><path d="M165.826 170.659a5.636 5.636 0 1 1-11.273.001 5.636 5.636 0 0 1 11.273-.001z" style="fill:#fce8cb"/><path class="st3" d="M160.189 177.795c-3.935 0-7.136-3.201-7.136-7.137a7.144 7.144 0 0 1 7.136-7.136c3.935 0 7.137 3.201 7.137 7.136 0 3.936-3.202 7.137-7.137 7.137zm0-11.272a4.14 4.14 0 0 0-4.136 4.136 4.141 4.141 0 0 0 4.136 4.137 4.141 4.141 0 0 0 4.137-4.137 4.141 4.141 0 0 0-4.137-4.136z"/></g></svg>