<svg xmlns="http://www.w3.org/2000/svg" viewBox="0 0 340 340"><g data-name="Layer 13"><path d="M57.392 29.762s96.705 3.9 109.777 85.968L64.924 67.941a76.419 76.419 0 0 0-7.532-38.179z" style="fill:#fff"/><path d="m41.929 157.4-5.874-7.393s33.881-32.209 131.1-9.284c0 0 87.741-29.784 128.477 11.823l-5.162 9.777z" style="fill:#f4914e"/><path d="M165.906 112.155s-1.389-40.368 58.56-69.622c19.847-9.685 30.516-19.222 35.908-29.254 0 0 13.311 33.7-10.249 59.467z" style="fill:#fff"/><path d="M163.885 117.752s7.2-29.266 41.352-40.229S278.583 63.294 289.08 49.3c0 0 2.333 38.255-27.058 47.352l-90.974 25.029z" style="fill:#b8c1dd"/><path d="M170 117.752S145.193 56.259 44.666 63.266c0 0 9.869 14.544 9.61 36.361z" style="fill:#b8c1dd"/><path d="M293.811 104.246a9.1 9.1 0 0 0-7.223-7.206c-17.752-3.386-72.105-10.383-119.419 18.69C119.854 86.657 65.5 93.654 47.749 97.04a9.1 9.1 0 0 0-7.223 7.206 149.295 149.295 0 0 0-1.5 9.377 17.058 17.058 0 0 1-.69 6.51 137.145 137.145 0 0 0-.426 18.894c63.372-20.075 129.256 0 129.256 0s65.883-20.075 129.255 0a134.164 134.164 0 0 0-.293-17.221 11.243 11.243 0 0 1-.635-6.64 146.173 146.173 0 0 0-1.682-10.92z" style="fill:#e9f0f9"/><path d="M296.13 121.806a157.023 157.023 0 0 0-.636-6.64 159 159 0 0 0-90.131-5.627 152.016 152.016 0 0 0-35.212 12.6v-9.491l-6-.021v9.739c-36.015-17.3-71.453-17.653-95.237-14.764a193.826 193.826 0 0 0-29.883 6.022 157.677 157.677 0 0 0-.69 6.51c22.868-6.849 74.349-17 125.81 8.924v9.13l6 .01v-9.241a143 143 0 0 1 36.787-13.623 153.049 153.049 0 0 1 89.192 6.472z" style="fill:#b8c1dd"/><path d="M260.388 289.854c1.3-13.347 9.764-18.844 9.764-18.844H44.714a22.345 22.345 0 0 0-22.345 22.345A22.345 22.345 0 0 0 44.714 315.7h225.438s-8.5-5.1-9.773-18.844a11.655 11.655 0 0 1 .009-7.002z" style="fill:#fff"/><path d="M301.667 259.988H80.475a52.458 52.458 0 0 0 7.812-13.724 8.815 8.815 0 0 0 1.927-7 39.156 39.156 0 0 0-.082-14.23 12.12 12.12 0 0 0-1.9-7 63.253 63.253 0 0 0-7.753-14.711h221.188A28.333 28.333 0 0 1 330 231.655a28.333 28.333 0 0 1-28.333 28.333z" style="fill:#fff1d1"/><path d="M298.739 136.5c-10.8-6.218-31.723-14.825-64.828-14.825-33.921 0-55.205 8.294-63.178 12.1a8.29 8.29 0 0 1-7.129 0c-7.973-3.8-29.256-12.095-63.177-12.095-33.106 0-54.031 8.607-64.829 14.825a9.675 9.675 0 0 0-2.974 14.242l4.237 5.63s16.871-19.3 63.81-19.3c33.267 0 52.78 7.767 61.326 12.292a11.034 11.034 0 0 0 10.343 0c8.546-4.525 28.06-12.292 61.326-12.292 46.939 0 62.9 20.318 62.9 20.318l5.145-6.653a9.675 9.675 0 0 0-2.972-14.242z" style="fill:#ffc676"/><path d="M294.2 225.034h-53.114a3.5 3.5 0 0 1 0-7H294.2a3.5 3.5 0 1 1 0 7zM219.857 218.034H88.227a45.82 45.82 0 0 1 1.9 7h129.73a3.5 3.5 0 0 0 0-7zM294.2 239.263H90.21a40.771 40.771 0 0 1-1.926 7H294.2a3.5 3.5 0 0 0 0-7z" style="fill:#efc49d"/><path d="M260.4 289.855H52.3a3.5 3.5 0 1 0 0 7h208.085c-.1-1.112-.164-3.5-.164-3.5 0-1.225.065-2.386.179-3.5z" style="fill:#b8c8db"/><path d="M287.152 203.323h-33.713a32.622 32.622 0 0 0-18.619 0h-121.7c-5.724-1.846-13.291-2.113-18.619 0H45.354a11.586 11.586 0 0 1-11.586-11.586v-29.181a10.011 10.011 0 0 1 10.011-10.011H94.5a33.038 33.038 0 0 0 18.619 0h121.7a27.9 27.9 0 0 0 18.619 0h35.066a10.232 10.232 0 0 1 10.232 10.232v28.96a11.585 11.585 0 0 1-11.584 11.586z" style="fill:#d36f74"/><path style="fill:#fff" d="M94.503 152.545h18.619v50.777H94.503zM234.82 152.545h18.619v50.777H234.82z"/><path d="M45.384 311.561a18.207 18.207 0 0 1-18.207-18.206 18.208 18.208 0 0 1 18.207-18.207H279.1a11.365 11.365 0 0 0 11.366-11.365v-3.8H43.367A33.367 33.367 0 0 0 10 293.355a33.367 33.367 0 0 0 33.367 33.367h247.1v-3.795a11.366 11.366 0 0 0-11.367-11.366z" style="fill:#678ad0"/><path d="M290.466 330.222a3.5 3.5 0 0 0 3.5-3.5v-3.795a14.883 14.883 0 0 0-14.866-14.866h-11.45c-1.894-2.918-3.929-7.683-3.929-14.706a26.355 26.355 0 0 1 4.066-14.707H279.1a14.883 14.883 0 0 0 14.866-14.865v-.3h7.7a31.833 31.833 0 1 0 0-63.665h-1.8a14.976 14.976 0 0 0 2.371-8.086v-27.601a14.973 14.973 0 0 0-1.427-6.364l3.7-4.916a13.154 13.154 0 0 0 2.385-10.534 13.3 13.3 0 0 0-6.411-8.846c-.136-.079-.28-.158-.418-.237a160.473 160.473 0 0 0-2.821-29.653 12.529 12.529 0 0 0-10-9.979 170.033 170.033 0 0 0-10.032-1.586c16.814-15.116 15.437-41.679 15.36-42.931a3.5 3.5 0 0 0-6.293-1.885c-3.728 4.97-12.373 8.617-23.223 11.8 9.752-23.135.981-45.969.572-47a3.5 3.5 0 0 0-6.338-.371c-5.466 10.171-16.385 18.994-34.36 27.766-31.888 15.561-46.3 35.362-52.766 49.234a74.944 74.944 0 0 0-3.717 9.624c-9-26.482-28.664-46.862-57.673-59.487a157.49 157.49 0 0 0-51.241-12.501 3.5 3.5 0 0 0-3.288 5.029A74.882 74.882 0 0 1 61.5 59.581a189 189 0 0 0-17.03.19 3.5 3.5 0 0 0-2.7 5.454c.076.114 7.317 11.072 8.761 27.764-1.289.215-2.438.423-3.434.613a12.531 12.531 0 0 0-10 9.979 160.877 160.877 0 0 0-2.821 29.653c-.138.079-.281.158-.417.237a13.3 13.3 0 0 0-6.411 8.846 13.151 13.151 0 0 0 2.387 10.534l2.629 3.494a14.976 14.976 0 0 0-2.189 7.786v27.606a15.1 15.1 0 0 0 15.086 15.086h33.251c11.589 17.59 11.625 33.868.11 49.665H43.367a36.867 36.867 0 0 0 0 73.734zM226 45.679c15.52-7.574 26.248-15.355 33.084-24.083 1.9 8.866 3.426 24.731-4.812 39.49-.059.106-.094.219-.142.328-4.717 1.2-9.67 2.352-14.693 3.524-11.608 2.709-23.611 5.51-35.27 9.252-12.436 3.992-21.087 10.012-27.1 16.223 6.209-12.685 19.707-30.472 48.933-44.734zm-19.693 35.176c11.388-3.655 23.25-6.423 34.721-9.1 18.176-4.241 34.405-8.027 44.274-14.444-.95 9.687-4.624 25.848-18.234 33.415a3.433 3.433 0 0 0-.32.222c-23.4-1.777-59.715-.5-93.536 17.319 3.727-8.257 12.581-20.827 33.095-27.412zm-35.639 36.854c46.337-27.519 99.832-20.176 115.265-17.231a5.564 5.564 0 0 1 4.441 4.433 152.85 152.85 0 0 1 2.645 24.717c-12.735-5.859-31.988-11.449-59.109-11.449-32.812 0-53.993 7.552-63.242 11.753zm-64.686-72.531c27.761 12.082 45.9 30.871 54.1 55.969a122.411 122.411 0 0 0-18.943-16.364C126.18 74.277 102.3 62.492 68.53 59.968a83 83 0 0 0-5.562-26.2 155.865 155.865 0 0 1 43.014 11.41zM50.476 66.531C91.965 65.469 120.2 78.708 136.819 90.3a115.83 115.83 0 0 1 16.881 14.329C116.659 87.815 78 89.359 57.462 91.973a74.3 74.3 0 0 0-6.986-25.442zm-6.514 38.38a5.566 5.566 0 0 1 4.443-4.433c15.435-2.944 68.928-10.287 115.263 17.231v12.223c-9.248-4.2-30.429-11.753-63.241-11.753-27.12 0-46.373 5.59-59.108 11.448a153.173 153.173 0 0 1 2.643-24.716zm123.2 33.711a7.266 7.266 0 0 0 3.329-.813c5.659-2.913 27.257-12.63 63.419-12.63 31.532 0 51.709 7.808 63.082 14.358a6.214 6.214 0 0 1 3.045 4.181 6.065 6.065 0 0 1-1.12 4.923L297 151.185c-6.919-5.664-25.943-17.6-63.337-17.6-39.467 0-60.113 10.69-66.5 14.725-6.384-4.035-27.031-14.725-66.5-14.725-37.394 0-56.417 11.94-63.337 17.6l-1.914-2.543a6.065 6.065 0 0 1-1.121-4.923 6.216 6.216 0 0 1 3.046-4.181c11.374-6.55 31.551-14.358 63.082-14.358 36.172 0 57.771 9.723 63.419 12.63a7.254 7.254 0 0 0 3.316.813zm112.546 10.423h-98.1c10.257-4.008 27.229-8.464 52.055-8.464 21.381 0 36.292 4.143 46.045 8.464zm-126.98 0h-98.1c9.756-4.322 24.665-8.464 46.04-8.464 24.832 0 41.806 4.457 52.06 8.464zM45.354 199.823a8.1 8.1 0 0 1-8.086-8.086v-27.606a8.038 8.038 0 0 1 1.776-5.043 3.635 3.635 0 0 0 .439-.394c.025-.028.437-.473 1.267-1.2a8.034 8.034 0 0 1 4.6-1.448h241.8a8.1 8.1 0 0 1 8.086 8.086v27.606a8.1 8.1 0 0 1-8.086 8.086H45.354zm41.486 7h214.827a24.833 24.833 0 1 1 0 49.665H87.141c9.707-15.814 9.613-32.471-.301-49.665zM13.5 293.355a29.9 29.9 0 0 1 29.867-29.867h243.6v.3a7.874 7.874 0 0 1-7.866 7.865H45.384a21.707 21.707 0 1 0 0 43.413H279.1a7.875 7.875 0 0 1 7.866 7.866v.295H43.367A29.9 29.9 0 0 1 13.5 293.355zm246.206 14.706H45.384a14.707 14.707 0 1 1 0-29.413H259.8a34.725 34.725 0 0 0-3.083 14.707 35.274 35.274 0 0 0 2.989 14.706z" style="fill:#3c3c4f"/></g></svg>