<svg xmlns="http://www.w3.org/2000/svg" width="16" height="16"><g transform="translate(0 -1036.362)"><rect width="8" height="12" x="4.086" y="1039.861" fill="#e5e5e5" rx=".501" ry=".501"/><path fill="#e5e5e5" d="m3.868 1039.683 6.728-1.802a.517.517 0 0 1 .634.366l.421 1.573 2.416 9.018a.517.517 0 0 1-.366.634l-1.548.415"/><path fill="#e5e5e5" d="m4.011 1045.028-2.36-2.494a.564.564 0 0 1 .023-.799l4.99-4.721a.563.563 0 0 1 .8.023l1.078 1.14m3.772 3.987.26.275 2.36 2.494a.564.564 0 0 1-.023.799l-1.31 1.239"/><rect width="8" height="12" x="4.086" y="1039.861" fill="none" stroke="#000" stroke-linecap="round" stroke-linejoin="round" stroke-width="1.002" rx=".501" ry=".501"/><path fill="none" stroke="#000" stroke-linecap="round" stroke-linejoin="round" stroke-width="1.002" d="m3.868 1039.683 6.728-1.802a.517.517 0 0 1 .634.366l.421 1.573 2.416 9.018a.517.517 0 0 1-.366.634l-1.548.415"/><path fill="#e65050" d="m8.085 1042.863 2 3-2 3-2-3z"/><path fill="none" stroke="#000" stroke-linecap="round" stroke-linejoin="round" stroke-width="1.002" d="m4.011 1045.028-2.36-2.494a.564.564 0 0 1 .023-.799h0l4.99-4.721a.563.563 0 0 1 .8.023l1.078 1.14m3.772 3.987.26.275 2.36 2.494a.564.564 0 0 1-.023.799l-1.31 1.239m-5.516-4.108 2 3-2 3-2-3z"/></g></svg>