<?xml version="1.0" encoding="utf-8"?>
<!-- Generator: Adobe Illustrator 24.0.0, SVG Export Plug-In . SVG Version: 6.00 Build 0)  -->
<svg version="1.1" xmlns="http://www.w3.org/2000/svg" xmlns:xlink="http://www.w3.org/1999/xlink" x="0px" y="0px"
	 viewBox="0 0 256 256" enable-background="new 0 0 256 256" xml:space="preserve">
<g id="Layer_2">
</g>
<g id="Layer_1">
	<g>
	</g>
	<g>
		<path fill="#72C2E9" d="M178.164,146.672H77.836c-3.637,0-6.586-2.949-6.586-6.586v0c0-3.637,2.949-6.586,6.586-6.586h100.328
			c3.637,0,6.586,2.949,6.586,6.586v0C184.75,143.724,181.801,146.672,178.164,146.672z"/>
		<rect x="120.67" y="146.67" fill="#F0C020" width="14.66" height="101.9"/>
		<rect x="120.67" y="146.67" fill="#E8A61E" width="14.66" height="9.32"/>
		<circle fill="#FFB69F" cx="37.795" cy="66.818" r="17.088"/>
		<path fill="#FC5D3D" d="M30.73,120.25v6.63c0,3.65,2.97,6.62,6.62,6.62h17.78v22.49H20.46v-54.75c0-9.57,7.76-17.33,17.33-17.33
			h0.01c9.57,0,17.33,7.76,17.33,17.33v19.01H30.73z"/>
		<path fill="#7D7B79" d="M93.04,165.99v69.51H73.7v-55.17c0-2.761-2.239-5-5-5H30.46c-5.523,0-10-4.477-10-10v-9.34h62.58
			C88.563,155.99,93.04,160.467,93.04,165.99z"/>
		<path fill="#EFEFEF" d="M108.483,241.167c0.52,3.984-2.58,7.403-6.483,7.403H73.7V235.5l28.071,0
			C105.09,235.5,108.054,237.876,108.483,241.167z"/>
		<rect x="5.04" y="192.667" fill="#F0C020" width="12.333" height="55.903"/>
		<path fill="#72C2E9" d="M20.46,165.33V89.15c0-4.258-3.452-7.71-7.71-7.71h0c-4.258,0-7.71,3.452-7.71,7.71v103.516H73.7V180.33
			c0-2.761-2.239-5-5-5H30.46C24.937,175.33,20.46,170.853,20.46,165.33z"/>
		<rect x="61.367" y="192.667" fill="#F0C020" width="12.333" height="55.903"/>
		<path fill="#FFB69F" d="M93.04,126.87v0.01c0,3.65-2.97,6.62-6.62,6.62H37.35c-3.65,0-6.62-2.97-6.62-6.62v-6.63h55.69
			C90.07,120.25,93.04,123.22,93.04,126.87z"/>
		<path fill="#FFB69F" d="M235.29,66.82c0,9.44-7.65,17.09-17.08,17.09c-9.44,0-17.09-7.65-17.09-17.09c0-1.92,0.32-3.77,0.91-5.49
			c2.28-6.75,8.66-11.6,16.18-11.6c7.51,0,13.89,4.85,16.17,11.6C234.97,63.05,235.29,64.9,235.29,66.82z"/>
		<path fill="#EFEFEF" d="M225.27,120.25v6.63c0,3.65-2.97,6.62-6.62,6.62h-17.78v22.49h34.67v-54.75c0-9.57-7.76-17.33-17.33-17.33
			h-0.01c-9.57,0-17.33,7.76-17.33,17.33v19.01H225.27z"/>
		<path fill="#7D7B79" d="M162.96,165.99v69.51h19.34v-55.17c0-2.761,2.239-5,5-5h38.24c5.523,0,10-4.477,10-10v-9.34h-62.58
			C167.437,155.99,162.96,160.467,162.96,165.99z"/>
		<path fill="#EFEFEF" d="M147.517,241.167c-0.52,3.984,2.58,7.403,6.483,7.403h28.3V235.5l-28.071,0
			C150.91,235.5,147.946,237.876,147.517,241.167z"/>
		
			<rect x="238.627" y="192.667" transform="matrix(-1 4.535160e-11 -4.535160e-11 -1 489.5867 441.2367)" fill="#F0C020" width="12.333" height="55.903"/>
		<path fill="#72C2E9" d="M235.54,165.33V89.15c0-4.258,3.452-7.71,7.71-7.71h0c4.258,0,7.71,3.452,7.71,7.71v103.516H182.3V180.33
			c0-2.761,2.239-5,5-5h38.24C231.063,175.33,235.54,170.853,235.54,165.33z"/>
		
			<rect x="182.3" y="192.667" transform="matrix(-1 4.454069e-11 -4.454069e-11 -1 376.9334 441.2367)" fill="#F0C020" width="12.333" height="55.903"/>
		<path fill="#FFB69F" d="M162.96,126.87v0.01c0,3.65,2.97,6.62,6.62,6.62h49.07c3.65,0,6.62-2.97,6.62-6.62v-6.63h-55.69
			C165.93,120.25,162.96,123.22,162.96,126.87z"/>
		<path fill="#F0C020" d="M152,121.701h-40.1c-3.258,0-5.9,2.641-5.9,5.9v0c0,3.258,2.641,5.9,5.9,5.9H152V121.701z"/>
		<circle fill="#F0C020" cx="91.162" cy="36.5" r="24.833"/>
		<path fill="#F0C020" d="M245.75,21.67v29.66c0,5.523-4.477,10-10,10h-1.37c-2.28-6.75-8.66-11.6-16.17-11.6
			c-7.52,0-13.9,4.85-16.18,11.6H139c-5.523,0-10-4.477-10-10V21.67c0-5.523,4.477-10,10-10h96.75
			C241.273,11.67,245.75,16.147,245.75,21.67z"/>
		<g>
			<g>
				<path fill="#AFAFAF" d="M84.04,229c-1.381,0-2.5-1.119-2.5-2.5v-3.661c0-1.381,1.119-2.5,2.5-2.5s2.5,1.119,2.5,2.5v3.661
					C86.54,227.881,85.421,229,84.04,229z M84.04,215.339c-1.381,0-2.5-1.119-2.5-2.5V167.49H29.46c-1.381,0-2.5-1.119-2.5-2.5
					s1.119-2.5,2.5-2.5h53.58c1.93,0,3.5,1.57,3.5,3.5v46.849C86.54,214.22,85.421,215.339,84.04,215.339z"/>
			</g>
			<g>
				<path fill="#AFAFAF" d="M171.96,229c-1.381,0-2.5-1.119-2.5-2.5v-3.661c0-1.381,1.119-2.5,2.5-2.5s2.5,1.119,2.5,2.5v3.661
					C174.46,227.881,173.341,229,171.96,229z M171.96,215.339c-1.381,0-2.5-1.119-2.5-2.5V165.99c0-1.93,1.57-3.5,3.5-3.5h53.58
					c1.381,0,2.5,1.119,2.5,2.5s-1.119,2.5-2.5,2.5h-52.08v45.349C174.46,214.22,173.341,215.339,171.96,215.339z"/>
			</g>
			<g>
				<g>
					<path fill="#AFAFAF" d="M84.04,229c-1.381,0-2.5-1.119-2.5-2.5v-3.661c0-1.381,1.119-2.5,2.5-2.5s2.5,1.119,2.5,2.5v3.661
						C86.54,227.881,85.421,229,84.04,229z M84.04,215.339c-1.381,0-2.5-1.119-2.5-2.5V167.49H29.46c-1.381,0-2.5-1.119-2.5-2.5
						s1.119-2.5,2.5-2.5h53.58c1.93,0,3.5,1.57,3.5,3.5v46.849C86.54,214.22,85.421,215.339,84.04,215.339z"/>
				</g>
				<g>
					<path fill="#AFAFAF" d="M171.96,229c-1.381,0-2.5-1.119-2.5-2.5v-3.661c0-1.381,1.119-2.5,2.5-2.5s2.5,1.119,2.5,2.5v3.661
						C174.46,227.881,173.341,229,171.96,229z M171.96,215.339c-1.381,0-2.5-1.119-2.5-2.5V165.99c0-1.93,1.57-3.5,3.5-3.5h53.58
						c1.381,0,2.5,1.119,2.5,2.5s-1.119,2.5-2.5,2.5h-52.08v45.349C174.46,214.22,173.341,215.339,171.96,215.339z"/>
				</g>
			</g>
			<path d="M63.649,64.02c0.978,0.976,2.557,0.973,3.53,0l6.504-6.504C78.588,61.603,84.7,63.83,91.16,63.83
				c14.997,0,27.33-12.1,27.33-27.33c0-15.016-12.116-27.33-27.33-27.33c-15.028,0-27.33,12.129-27.33,27.33
				c0,6.461,2.228,12.583,6.317,17.482l-6.498,6.498C62.67,61.46,62.67,63.04,63.649,64.02z M91.16,14.17
				c12.29,0.02,22.31,10.04,22.33,22.33c-0.021,12.29-10.04,22.31-22.33,22.33C78.87,58.81,68.85,48.79,68.83,36.5
				C68.85,24.21,78.87,14.19,91.16,14.17z"/>
			<path d="M91.16,45.31c-1.38,0-2.5,1.12-2.5,2.5v0.72c0,1.38,1.12,2.5,2.5,2.5s2.5-1.12,2.5-2.5v-0.72
				C93.66,46.43,92.54,45.31,91.16,45.31z"/>
			<path d="M84.76,31.65c1.38,0,2.5-1.12,2.5-2.5c0.01-2.1,1.75-3.81,3.91-3.82c1.997,0,3.89,1.735,3.89,3.82
				c0,1.46-0.83,2.77-2.18,3.42c-2.6,1.24-4.22,3.7-4.22,6.42v0.55c0,1.38,1.12,2.5,2.5,2.5s2.5-1.12,2.5-2.5v-0.55
				c0-0.77,0.5-1.47,1.39-1.92c3.04-1.46,5.01-4.57,5.01-7.92c-0.04-4.84-3.997-8.779-8.899-8.82c-4.9,0.01-8.891,3.97-8.9,8.82
				C82.26,30.53,83.38,31.65,84.76,31.65z"/>
			<circle cx="195.63" cy="11.67" r="2.5"/>
			<path d="M229.63,21.5h-84.5c-1.38,0-2.5,1.12-2.5,2.5c0,1.38,1.12,2.5,2.5,2.5h84.5c1.37,0,2.5-1.12,2.5-2.5
				C232.13,22.62,231,21.5,229.63,21.5z"/>
			<path d="M145.125,39h14c1.381,0,2.5-1.119,2.5-2.5s-1.119-2.5-2.5-2.5h-14c-1.381,0-2.5,1.119-2.5,2.5S143.744,39,145.125,39z"/>
			<path d="M232.125,36.5c0-1.381-1.119-2.5-2.5-2.5h-60.5c-1.381,0-2.5,1.119-2.5,2.5s1.119,2.5,2.5,2.5h60.5
				C231.006,39,232.125,37.881,232.125,36.5z"/>
			<path d="M145.12,51.5H197c1.38,0,2.5-1.12,2.5-2.5c0-1.38-1.12-2.5-2.5-2.5h-51.88c-1.37,0-2.5,1.12-2.5,2.5
				C142.62,50.38,143.75,51.5,145.12,51.5z"/>
			<circle cx="135.33" cy="176.67" r="2.5"/>
			<circle cx="5.04" cy="138.74" r="2.5"/>
			<path d="M253.46,248.57c0-6.987,0-152.786,0-159.42c0-5.63-4.58-10.21-10.21-10.21c-5.302,0-9.67,4.063-10.161,9.239
				c-1.508-1.715-3.295-3.176-5.306-4.29c5.962-3.362,10.007-9.749,10.007-17.069c0-1.056-0.087-2.103-0.253-3.133
				c6.045-0.872,10.713-6.076,10.713-12.357V21.67c0-6.89-5.61-12.5-12.5-12.5h-30.12c-1.38,0-2.5,1.12-2.5,2.5s1.12,2.5,2.5,2.5
				h30.12c4.13,0.01,7.49,3.37,7.5,7.5v29.66c-0.01,4.03-3.16,7.31-7.17,7.49c-3.105-6.967-10.135-11.59-17.87-11.59
				c-7.679,0-14.732,4.525-17.88,11.6H139c-4.13-0.01-7.49-3.37-7.5-7.5V21.67c0.01-4.13,3.37-7.49,7.5-7.5h46.63
				c1.38,0,2.5-1.12,2.5-2.5s-1.12-2.5-2.5-2.5H139c-6.891,0-12.5,5.61-12.5,12.5v29.66c0,6.89,5.609,12.5,12.5,12.5h35.17v5.34
				c0,4.13,3.36,7.5,7.5,7.5h6.96c1.37,0,2.49-1.12,2.49-2.5s-1.12-2.5-2.49-2.5h-6.96c-1.38,0-2.5-1.13-2.5-2.5v-5.34h19.685
				c-1.285,8.348,2.866,16.163,9.772,20.057c-6.108,3.385-10.257,9.893-10.257,17.353v16.51h-28.79
				c-6.774,0.013-11.215,7.185-8.124,13.25H154.5v-9.07l7.29-40.04c0.25-1.36-0.65-2.66-2.01-2.91c-1.351-0.24-2.66,0.67-2.91,2.01
				l-6.957,38.21h-38.014c-6.032,0-10.15,6.235-7.673,11.8H94.54c3.112-6.095-1.386-13.25-8.12-13.25H57.63v-16.51
				c0-7.459-4.149-13.967-10.258-17.352c5.966-3.361,10.008-9.746,10.008-17.068c0-10.8-8.78-19.59-19.58-19.59
				s-19.59,8.79-19.59,19.59c0,7.32,4.045,13.703,10.01,17.065c-2.013,1.115-3.801,2.577-5.31,4.293
				c-0.491-5.175-4.859-9.238-10.161-9.238c-5.63,0-10.21,4.58-10.21,10.21v39.59c0,1.38,1.12,2.5,2.5,2.5s2.5-1.12,2.5-2.5V89.15
				c0.01-2.87,2.34-5.2,5.21-5.21c2.87,0.01,5.2,2.34,5.21,5.21c0,15.68,0,60.869,0,76.18c0,6.89,5.609,12.5,12.5,12.5H68.7
				c1.369,0,2.5,1.13,2.5,2.5v9.84c-6.78,0-56.861,0-63.66,0v-41.43c0-1.38-1.12-2.5-2.5-2.5s-2.5,1.12-2.5,2.5
				c0,9.951,0,88.988,0,99.83c0,1.38,1.12,2.5,2.5,2.5c10.281,0,236.853,0,245.92,0C252.34,251.07,253.46,249.95,253.46,248.57z
				 M248.46,246.07h-7.331l-0.009-50.9h7.34V246.07z M154.229,233c-6.797,0-11.37,6.972-8.307,13.07h-8.092v-59.4
				c0-1.38-1.12-2.5-2.5-2.5s-2.5,1.12-2.5,2.5v59.4h-9.66v-96.9h9.66v17.5c0,1.38,1.12,2.5,2.5,2.5s2.5-1.12,2.5-2.5v-17.5h40.33
				c6.726,0,11.178-7.111,8.106-13.17h12.104v17.49h-25.41c-6.891,0-12.5,5.61-12.5,12.5V233H154.229z M101.77,233H95.54v-67.01
				c0-6.89-5.61-12.5-12.5-12.5H57.63V136h12.104c-3.066,6.05,1.372,13.17,8.096,13.17h40.34v96.9h-8.097
				C113.138,239.973,108.567,233,101.77,233z M178.16,136c2.25,0,4.09,1.84,4.09,4.09c0,2.24-1.84,4.08-4.09,4.08H77.83
				c-2.24,0-4.08-1.84-4.08-4.08c0-2.25,1.84-4.09,4.08-4.09C88.287,136,168.444,136,178.16,136z M165.46,165.99
				c0.01-4.13,3.37-7.49,7.5-7.5c6.778,0,54.378,0,60.08,0v6.84c-0.01,4.13-3.37,7.49-7.5,7.5H187.3c-4.13,0-7.5,3.37-7.5,7.5
				c0,11.022,0,42.123,0,52.67h-14.34V165.99z M184.8,195.17h7.33v50.9h-7.33C184.8,235.795,184.8,205.591,184.8,195.17z
				 M197.13,195.17h39v50.9h-39V195.17z M238.04,89.15c0-2.87,2.34-5.2,5.21-5.21c2.87,0.01,5.2,2.34,5.21,5.21v101.02
				c-6.78,0-56.861,0-63.66,0v-9.84c0-1.38,1.12-2.5,2.5-2.5h38.24c6.89,0,12.5-5.61,12.5-12.5
				C238.04,156.001,238.04,95.738,238.04,89.15z M203.62,66.82c0-7.93,6.41-14.59,14.58-14.59h0.02c8.116,0,14.57,6.61,14.57,14.59
				c-0.01,8.03-6.55,14.58-14.58,14.59C210.18,81.4,203.63,74.85,203.62,66.82z M203.37,101.24c0.01-8.16,6.67-14.82,14.84-14.83
				c8.16,0.01,14.81,6.67,14.83,14.83v52.25h-29.67V136h15.279c5.021,0,9.11-4.1,9.12-9.12c0-11.942,0-12.455,0-19.68
				c0-1.38-1.12-2.5-2.5-2.5s-2.5,1.12-2.5,2.5v10.55h-9.06V107.2c0-1.38-1.12-2.5-2.5-2.5s-2.5,1.12-2.5,2.5v10.55h-5.34V101.24z
				 M165.46,126.87c0-2.27,1.85-4.12,4.12-4.12c81.352,0,39.329,0,53.189,0v4.13c-0.01,2.27-1.85,4.12-4.12,4.12
				c-9.83,0-37.619,0-49.069,0C167.31,131,165.46,129.15,165.46,126.87z M108.5,127.6c0-1.87,1.53-3.4,3.399-3.4H149.5v6.8h-37.601
				C110.03,131,108.5,129.47,108.5,127.6z M90.54,126.88c-0.01,2.27-1.851,4.12-4.12,4.12c-27.612,0-21.793,0-49.07,0
				c-2.27,0-4.12-1.85-4.12-4.12v-4.13c11.762,0,41.361,0,53.19,0C88.689,122.76,90.53,124.6,90.54,126.88z M23.21,66.82
				c0.01-8.03,6.56-14.58,14.59-14.59c8.02,0.01,14.57,6.56,14.58,14.59c-0.01,8.03-6.561,14.57-14.58,14.59
				C29.77,81.39,23.22,74.85,23.21,66.82z M37.79,86.41L37.79,86.41c0.003,0,0.006,0,0.01,0c8.16,0.02,14.81,6.67,14.83,14.83v16.51
				h-5.34V107.2c0-1.38-1.12-2.5-2.5-2.5c-1.37,0-2.49,1.11-2.5,2.49c0,0,0,0,0,0.01v10.55h-9.061V107.2c0-1.38-1.12-2.5-2.5-2.5
				s-2.5,1.12-2.5,2.5c0,7.415,0,12.759,0,19.68c0,5.02,4.09,9.11,9.12,9.12h15.28v17.49H22.96v-52.25
				C22.97,93.08,29.63,86.43,37.79,86.41z M68.7,172.83H30.46c-4.13-0.01-7.49-3.37-7.5-7.5v-6.84c5.747,0,53.263,0,60.08,0
				c4.13,0.01,7.49,3.37,7.5,7.5V233H76.2v-40.33v-12.34C76.2,176.2,72.83,172.83,68.7,172.83z M71.2,195.17
				c0,10.421,0,40.625,0,50.9h-7.341v-50.9H71.2z M58.87,246.07h-39v-50.9h39V246.07z M14.87,195.17v50.9H7.54v-50.9H14.87z
				 M76.2,246.07V238c2.07,0,21.997,0,25.58,0c2.14,0,3.989,1.53,4.22,3.49c0,0,0,0.01,0.01,0.01c0.305,2.527-1.66,4.57-4.01,4.57
				H76.2z M150,241.5c0-0.01,0-0.01,0-0.01c0.229-1.96,2.08-3.49,4.229-3.49c3.611,0,23.287,0,25.57,0v8.07H154
				C151.503,246.07,149.634,243.798,150,241.5z"/>
		</g>
	</g>
</g>
</svg>
