<svg xmlns="http://www.w3.org/2000/svg" width="64" height="64" xml:space="preserve"><path fill="#F5F7FA" d="m32 57.5-3 1-2-2v-3.2c1.5.771 3.2 1.2 5 1.2s3.5-.43 5-1.2v3.2l-2 2-3-1z"/><path fill="#656D78" d="M43 37.5v2l-3-3s-3.72 2-8 2c-4.29 0-8-2-8-2l-3 3v-2c0-6.07 4.92-11 11-11 6.07 0 11 4.93 11 11z"/><path fill="#545C66" d="M32 26.5c-.511 0-1.01.047-1.502.114 5.043.691 9 4.797 9.45 9.913L40 36.5l3 3v-2c0-6.07-4.93-11-11-11z"/><path fill="#E6E9ED" d="m29 58.5 3-1 3 1 2-2h4c3.31 0 6 2.68 6 6H17c0-3.32 2.68-6 6-6h4l2 2z"/><path fill="#CCD1D9" d="M41 56.5h-4a5.998 5.998 0 0 1 5.996 6H47c0-3.32-2.69-6-6-6z"/><path fill="#EAC6BB" d="M43 39.5v4c0 4.27-2.44 7.98-6 9.8-1.5.771-3.2 1.2-5 1.2s-3.5-.43-5-1.2c-3.56-1.819-6-5.53-6-9.8v-4l3-3s3.71 2 8 2c4.28 0 8-2 8-2l3 3z"/><path fill="#D3B1A9" d="m40 36.5-.003.002V43.5c0 4.27-2.44 7.98-6 9.8a10.84 10.84 0 0 1-3.499 1.09c.492.067.992.11 1.502.11 1.8 0 3.5-.43 5-1.2 3.56-1.819 6-5.53 6-9.8v-4l-3-3z"/><path fill="#5D9CEC" d="M32 2.5c-5.53 0-10 4.48-10 10s4.47 10 10 10c5.52 0 10-4.48 10-10s-4.48-10-10-10z"/><path fill="#E6E9ED" d="M35 13.5v4h-6c-1.11 0-2-.89-2-2a2 2 0 0 1 2-2h6z"/><path fill="#545C66" d="M36 7.5v6h-7a2 2 0 0 0-2 2v-6c0-1.11.89-2 2-2h7z"/><path fill="#545C66" d="M27 10.5a1 1 0 0 1-1-1c0-1.654 1.346-3 3-3a1 1 0 1 1 0 2c-.552 0-1 .449-1 1a1 1 0 0 1-1 1z"/><path fill="#545C66" d="M36 8.5h-7a1 1 0 1 1 0-2h7a1 1 0 1 1 0 2z"/><path fill="#545C66" d="M36 14.5a1 1 0 0 1-1-1v-6a1 1 0 1 1 2 0v6a1 1 0 0 1-1 1zM27 16.5a1 1 0 0 1-1-1v-6a1 1 0 1 1 2 0v6a1 1 0 0 1-1 1z"/><path fill="#5D9CEC" d="M32 23.5c-6.065 0-11-4.935-11-11s4.935-11 11-11 11 4.935 11 11-4.935 11-11 11zm0-20c-4.963 0-9 4.037-9 9s4.037 9 9 9 9-4.037 9-9-4.037-9-9-9z"/><path fill="#656D78" d="M29 18.5c-1.654 0-3-1.346-3-3s1.346-3 3-3a1 1 0 1 1 0 2 1.001 1.001 0 0 0 0 2 1 1 0 1 1 0 2z"/><path fill="#E6E9ED" d="M35 18.5a1 1 0 0 1-1-1v-4a1 1 0 1 1 2 0v4a1 1 0 0 1-1 1z"/><path fill="#656D78" d="M36 18.5h-7a1 1 0 1 1 0-2h7a1 1 0 1 1 0 2zM36 14.5h-7a1 1 0 1 1 0-2h7a1 1 0 1 1 0 2z"/><g><path fill="#5D9CEC" d="M11 13.506c-5.53 0-10 4.48-10 10s4.47 10 10 10c5.52 0 10-4.48 10-10s-4.48-10-10-10z"/><path fill="#E6E9ED" d="M14 24.506v4H8c-1.11 0-2-.889-2-2a2 2 0 0 1 2-2h6z"/><path fill="#545C66" d="M15 18.506v6H8a2 2 0 0 0-2 2v-6c0-1.109.89-2 2-2h7z"/><path fill="#545C66" d="M6 21.506a1 1 0 0 1-1-1c0-1.654 1.346-3 3-3a1 1 0 1 1 0 2c-.552 0-1 .449-1 1a1 1 0 0 1-1 1z"/><path fill="#545C66" d="M15 19.506H8a1 1 0 1 1 0-2h7a1 1 0 1 1 0 2z"/><path fill="#545C66" d="M15 25.506a1 1 0 0 1-1-1v-6a1 1 0 1 1 2 0v6a1 1 0 0 1-1 1zM6 27.506a1 1 0 0 1-1-1v-6a1 1 0 1 1 2 0v6a1 1 0 0 1-1 1z"/><path fill="#5D9CEC" d="M11 34.506c-6.065 0-11-4.934-11-11 0-6.064 4.935-11 11-11s11 4.936 11 11c0 6.066-4.935 11-11 11zm0-20c-4.963 0-9 4.038-9 9 0 4.963 4.037 9 9 9s9-4.037 9-9c0-4.962-4.037-9-9-9z"/><path fill="#656D78" d="M8 29.506c-1.654 0-3-1.346-3-3s1.346-3 3-3a1 1 0 1 1 0 2 1.001 1.001 0 0 0 0 2 1 1 0 1 1 0 2z"/><path fill="#E6E9ED" d="M14 29.506a1 1 0 0 1-1-1v-4a1 1 0 1 1 2 0v4a1 1 0 0 1-1 1z"/><path fill="#656D78" d="M15 29.506H8a1 1 0 1 1 0-2h7a1 1 0 1 1 0 2zM15 25.506H8a1 1 0 1 1 0-2h7a1 1 0 1 1 0 2z"/></g><g><path fill="#5D9CEC" d="M53 13.506c-5.53 0-10 4.48-10 10s4.47 10 10 10c5.52 0 10-4.48 10-10s-4.48-10-10-10z"/><path fill="#E6E9ED" d="M56 24.506v4h-6c-1.11 0-2-.889-2-2a2 2 0 0 1 2-2h6z"/><path fill="#545C66" d="M57 18.506v6h-7a2 2 0 0 0-2 2v-6c0-1.109.89-2 2-2h7z"/><path fill="#545C66" d="M48 21.506a1 1 0 0 1-1-1c0-1.654 1.346-3 3-3a1 1 0 1 1 0 2c-.552 0-1 .449-1 1a1 1 0 0 1-1 1z"/><path fill="#545C66" d="M57 19.506h-7a1 1 0 1 1 0-2h7a1 1 0 1 1 0 2z"/><path fill="#545C66" d="M57 25.506a1 1 0 0 1-1-1v-6a1 1 0 1 1 2 0v6a1 1 0 0 1-1 1zM48 27.506a1 1 0 0 1-1-1v-6a1 1 0 1 1 2 0v6a1 1 0 0 1-1 1z"/><path fill="#5D9CEC" d="M53 34.506c-6.065 0-11-4.934-11-11 0-6.064 4.935-11 11-11s11 4.936 11 11c0 6.066-4.935 11-11 11zm0-20c-4.963 0-9 4.038-9 9 0 4.963 4.037 9 9 9s9-4.037 9-9c0-4.962-4.037-9-9-9z"/><path fill="#656D78" d="M50 29.506c-1.654 0-3-1.346-3-3s1.346-3 3-3a1 1 0 1 1 0 2 1.001 1.001 0 0 0 0 2 1 1 0 1 1 0 2z"/><path fill="#E6E9ED" d="M56 29.506a1 1 0 0 1-1-1v-4a1 1 0 1 1 2 0v4a1 1 0 0 1-1 1z"/><path fill="#656D78" d="M57 29.506h-7a1 1 0 1 1 0-2h7a1 1 0 1 1 0 2zM57 25.506h-7a1 1 0 1 1 0-2h7a1 1 0 1 1 0 2z"/></g></svg>