<svg xmlns="http://www.w3.org/2000/svg" viewBox="0 0 256 256" style="enable-background:new 0 0 256 256" xml:space="preserve"><style>.st2{fill:none;stroke:#6b1d1d;stroke-width:.5;stroke-miterlimit:10}.st3{fill:#3a312a}.st10{fill:#decaad}.st14{fill:#d7e057}.st21{fill:#8ac5dc}.st22{fill:#ef6d7a}</style><g id="Layer_1"><path d="M91.154 240.037v-38.495h-16.52c-10.685 0-19.348-8.662-19.348-19.348v-27.115l-1.077-1.076H24.102c-5.959 0-9.684-6.451-6.704-11.612L49.632 86.56a7.59 7.59 0 0 0 .673-1.55c12.283-39.702 49.424-68.483 93.241-68.142 52.364.408 95.274 43.04 96.004 95.4.489 35.045-17.655 65.884-45.155 83.258v44.512H91.154z" style="fill:#fce8cb"/><path class="st3" d="M194.395 241.537a1.5 1.5 0 0 1-1.5-1.5v-44.512c0-.515.264-.993.699-1.269 28.304-17.882 44.923-48.524 44.456-81.97-.717-51.387-43.117-93.52-94.516-93.92-20.895-.13-40.811 6.323-57.539 18.758-16.168 12.02-28.334 29.182-34.257 48.327a9.147 9.147 0 0 1-.806 1.855l-32.235 55.833a6.178 6.178 0 0 0 0 6.241 6.178 6.178 0 0 0 5.405 3.121h30.107c.397 0 .778.157 1.06.439l1.079 1.078c.281.281.438.662.438 1.06v27.115c0 9.841 8.006 17.848 17.848 17.848h16.521a1.5 1.5 0 0 1 1.5 1.5v38.495a1.5 1.5 0 1 1-3 0v-36.995H74.634c-11.496 0-20.848-9.353-20.848-20.848V155.7l-.198-.197H24.102c-3.341 0-6.333-1.727-8.003-4.621-1.67-2.893-1.67-6.348 0-9.241L48.333 85.81c.221-.384.402-.803.539-1.244 6.11-19.749 18.658-37.452 35.333-49.848 17.256-12.827 37.771-19.475 59.352-19.351 53.018.413 96.753 43.873 97.493 96.879.478 34.221-16.386 65.597-45.155 84.102v43.689a1.5 1.5 0 0 1-1.5 1.5z"/><path class="st14" d="M47.866 26.67s3.408 12.659 13.222 13.246c0 0-13.1 4.525-13.321 14.202 0 0-2.578-13.572-12.925-14.059-.001.001 12.05-1.825 13.024-13.389z"/><path class="st3" d="M47.766 55.618a1.5 1.5 0 0 1-1.472-1.217c-.024-.125-2.495-12.418-11.523-12.844a1.5 1.5 0 0 1-.154-2.982c.441-.068 10.894-1.816 11.754-12.031a1.498 1.498 0 0 1 1.359-1.367 1.496 1.496 0 0 1 1.583 1.102c.032.116 3.259 11.626 11.863 12.141a1.499 1.499 0 0 1 .402 2.914c-.121.042-12.118 4.311-12.312 12.819a1.5 1.5 0 0 1-1.5 1.465zm-7.742-15.729c3.878 1.969 6.231 5.746 7.587 8.877 2.026-4.021 5.941-6.787 8.949-8.427-4.134-1.843-6.783-5.651-8.334-8.723-1.793 4.36-5.271 6.868-8.202 8.273z"/><path class="st14" d="M26.167 43.651s2.411 8.954 9.352 9.369c0 0-9.266 3.201-9.422 10.045 0 0-1.824-9.6-9.142-9.944 0 0 8.523-1.291 9.212-9.47z"/><path class="st3" d="M26.095 64.565a1.5 1.5 0 0 1-1.472-1.22c-.016-.082-1.704-8.442-7.739-8.727a1.5 1.5 0 0 1-.154-2.982c.296-.047 7.364-1.242 7.942-8.112a1.5 1.5 0 0 1 2.942-.266c.021.079 2.228 7.92 7.994 8.265a1.5 1.5 0 0 1 .401 2.915c-.081.028-8.282 2.953-8.413 8.661a1.5 1.5 0 0 1-1.501 1.466zm-4.518-11.527c2.106 1.332 3.523 3.394 4.447 5.279 1.377-2.232 3.515-3.871 5.365-4.972-2.287-1.27-3.884-3.35-4.941-5.224-1.174 2.287-3.015 3.876-4.871 4.917z"/><path class="st14" d="M26.167 16.993s2.411 8.954 9.352 9.37c0 0-9.266 3.201-9.422 10.045 0 0-1.824-9.6-9.142-9.944 0 0 8.523-1.291 9.212-9.471z"/><path class="st3" d="M26.095 37.908a1.5 1.5 0 0 1-1.472-1.22c-.016-.082-1.704-8.442-7.739-8.727a1.5 1.5 0 0 1-.154-2.982c.296-.047 7.364-1.242 7.942-8.113a1.5 1.5 0 0 1 2.942-.266c.021.079 2.228 7.92 7.994 8.266a1.5 1.5 0 0 1 .4 2.915c-.081.028-8.282 2.952-8.413 8.661a1.5 1.5 0 0 1-1.5 1.466zm-4.518-11.527c2.107 1.332 3.523 3.394 4.447 5.279 1.376-2.233 3.515-3.871 5.365-4.972-2.287-1.27-3.884-3.351-4.941-5.225-1.174 2.288-3.015 3.877-4.871 4.918zM178.624 78.751a1.5 1.5 0 0 1-1.053-2.568l37.83-37.301a1.5 1.5 0 1 1 2.106 2.137l-37.83 37.301a1.497 1.497 0 0 1-1.053.431z"/><circle cx="216.651" cy="39.951" r="23" style="fill:#d6df58"/><path class="st3" d="M216.651 64.45c-13.509 0-24.5-10.99-24.5-24.5s10.991-24.5 24.5-24.5 24.5 10.99 24.5 24.5-10.991 24.5-24.5 24.5zm0-46c-11.855 0-21.5 9.645-21.5 21.5s9.645 21.5 21.5 21.5 21.5-9.645 21.5-21.5-9.645-21.5-21.5-21.5zM217.453 152.45c-.244 0-.491-.06-.719-.185l-30.9-16.93a1.5 1.5 0 1 1 1.441-2.631l30.9 16.93a1.5 1.5 0 0 1-.722 2.816z"/><circle transform="rotate(-75.398 217.644 150.66)" class="st22" cx="217.647" cy="150.66" r="22"/><path class="st3" d="M217.687 174.156c-8.18 0-16.137-4.27-20.464-11.872a23.347 23.347 0 0 1-2.237-17.847 23.345 23.345 0 0 1 11.038-14.201c11.261-6.408 25.638-2.461 32.047 8.8 6.409 11.263 2.461 25.64-8.8 32.049h-.001a23.353 23.353 0 0 1-11.583 3.071zm-.072-44.005c-3.509 0-6.975.909-10.107 2.692a20.365 20.365 0 0 0-9.629 12.389 20.364 20.364 0 0 0 1.951 15.567c5.592 9.824 18.133 13.267 27.957 7.678h-.001c9.824-5.591 13.268-18.133 7.677-27.957a20.36 20.36 0 0 0-12.388-9.628 20.582 20.582 0 0 0-5.46-.741zm10.914 39.63h.01-.01zM132.456 208.45a1.5 1.5 0 0 1-1.49-1.687l6.05-48.369a1.5 1.5 0 1 1 2.976.373l-6.05 48.369a1.499 1.499 0 0 1-1.486 1.314z"/><circle transform="rotate(-82.403 132.445 206.952)" class="st21" cx="132.455" cy="206.951" r="22"/><path class="st3" d="M132.458 230.439c-6.141 0-12.276-2.386-16.877-7.133-9.018-9.304-8.786-24.211.518-33.23 4.507-4.369 10.431-6.716 16.723-6.623a23.35 23.35 0 0 1 16.507 7.142c9.018 9.304 8.786 24.211-.518 33.23-4.558 4.417-10.459 6.614-16.353 6.614zm-.006-43.979a20.431 20.431 0 0 0-14.265 5.77c-8.116 7.867-8.319 20.872-.452 28.988 7.868 8.116 20.872 8.318 28.988.452 8.116-7.867 8.319-20.872.452-28.988-4.014-4.14-9.366-6.222-14.723-6.222zM96.465 111.57h-.028l-58.45-1.069a1.5 1.5 0 0 1-1.472-1.527 1.512 1.512 0 0 1 1.527-1.473l58.45 1.069a1.5 1.5 0 0 1-.027 3z"/><circle transform="rotate(-66.996 38.437 108.879)" class="st22" cx="38.438" cy="108.882" r="22"/><path class="st3" d="M38.399 132.38c-3.482 0-7.016-.776-10.345-2.416-11.625-5.726-16.423-19.842-10.698-31.466a23.345 23.345 0 0 1 13.517-11.865c5.942-2.021 12.316-1.605 17.948 1.168 11.624 5.726 16.423 19.841 10.698 31.466-4.086 8.294-12.444 13.113-21.12 13.113zM18.702 99.161l1.346.663c-4.995 10.14-.809 22.453 9.332 27.448 10.144 4.998 22.455.809 27.449-9.332 4.995-10.14.808-22.453-9.331-27.448a20.372 20.372 0 0 0-15.657-1.02 20.367 20.367 0 0 0-11.792 10.352l-1.347-.663zM118.086 72.341c-.488 0-.967-.237-1.255-.676l-21.63-32.891a1.5 1.5 0 1 1 2.507-1.648l21.63 32.891a1.5 1.5 0 0 1-1.252 2.324z"/><circle transform="rotate(-50.372 96.444 37.966)" class="st21" cx="96.45" cy="37.965" r="22"/><path class="st3" d="M96.416 61.465c-3.144 0-6.335-.634-9.395-1.974a23.346 23.346 0 0 1-12.459-12.972 23.346 23.346 0 0 1 .362-17.982 23.347 23.347 0 0 1 12.972-12.46 23.36 23.36 0 0 1 17.982.362c11.869 5.199 17.296 19.085 12.097 30.954-3.859 8.811-12.505 14.071-21.559 14.072zm.04-44.011c-2.522 0-5.048.472-7.468 1.417A20.364 20.364 0 0 0 77.673 29.74a20.362 20.362 0 0 0-.316 15.687 20.363 20.363 0 0 0 10.869 11.316c10.354 4.537 22.467-.199 27.002-10.553 4.535-10.354-.199-22.468-10.553-27.003a20.464 20.464 0 0 0-8.219-1.733z"/><path d="M113.709 147.806c8.328 6.955 19.046 11.145 30.745 11.145 26.51 0 48-21.49 48-48s-21.49-48-48-48-48 21.49-48 48a47.771 47.771 0 0 0 8.562 27.35l8.693 9.505z" style="fill:#87796f"/><path class="st3" d="M144.455 160.45a49.553 49.553 0 0 1-31.707-11.493 1.5 1.5 0 1 1 1.923-2.302 46.544 46.544 0 0 0 29.784 10.796c25.64 0 46.5-20.859 46.5-46.5s-20.86-46.5-46.5-46.5-46.5 20.859-46.5 46.5c0 9.523 2.868 18.685 8.294 26.494a1.5 1.5 0 1 1-2.464 1.711c-5.777-8.314-8.83-18.066-8.83-28.205 0-27.294 22.206-49.5 49.5-49.5s49.5 22.206 49.5 49.5-22.206 49.499-49.5 49.499z"/><path class="st10" d="M238.055 112.29c.11 7.92-.75 15.69-2.49 23.17a23.373 23.373 0 0 0-12.05-7.53 97.5 97.5 0 0 0 1.04-15.66c-.24-17.73-5.33-34.35-14-48.59 1.95.5 4 .77 6.1.77 2.4 0 4.73-.35 6.92-1 8.94 14.251 14.23 30.991 14.48 48.84zM192.155 39.951c0 .55.02 1.11.06 1.65-13.09-11.73-29.37-19.97-47.32-23.21 17.64.39 34.17 5.7 48.27 14.58-.65 2.22-1.01 4.56-1.01 6.98zM216.495 174.12c-6.39 7.75-14.08 14.56-22.9 20.14-.44.27-.7.75-.7 1.26v44.52h-13.5v-44.52a97.314 97.314 0 0 0 26.38-24.58 23.79 23.79 0 0 0 10.72 3.18z"/></g></svg>