<svg version="1.1" id="Layer_1" xmlns="http://www.w3.org/2000/svg" x="0" y="0" viewBox="0 0 512 512" style="enable-background:new 0 0 512 512" xml:space="preserve"><style>.st0{fill:#71cce0}.st1{fill:#dfdfdf}.st2{fill:#4a555f}.st3{fill:#ffd452}.st4{fill:#f58e6f}</style><path class="st2" d="M89.552 324.284c-21.993 0-39.884 17.892-39.884 39.884s17.891 39.884 39.884 39.885c21.993 0 39.884-17.892 39.884-39.884s-17.891-39.885-39.884-39.885zm0 73.616c-18.6 0-33.731-15.133-33.731-33.732s15.131-33.731 33.731-33.731 33.731 15.132 33.731 33.732S108.152 397.9 89.552 397.9z"/><path class="st3" d="M89.552 338.031c-14.413 0-26.137 11.725-26.137 26.137s11.725 26.137 26.137 26.137 26.136-11.725 26.136-26.137-11.724-26.137-26.136-26.137z"/><path class="st2" d="M115.923 397.9H59.388c-25.979 0-47.114 21.135-47.114 47.114V512h6.152v-66.986c0-22.586 18.376-40.961 40.961-40.961h56.535c22.588 0 40.963 18.375 40.963 40.961V512h6.153v-66.986c.001-25.979-21.135-47.114-47.115-47.114z"/><path class="st1" d="M115.924 411.647H59.387c-18.398 0-33.366 14.969-33.366 33.367V512h123.27v-66.986c0-18.399-14.968-33.367-33.367-33.367z"/><path class="st2" d="M34.271 469.779h6.153V512h-6.153zM134.867 469.779h6.153V512h-6.153zM253.904 324.284c-21.993 0-39.884 17.892-39.884 39.884s17.891 39.884 39.884 39.885c21.993 0 39.886-17.892 39.886-39.884s-17.893-39.885-39.886-39.885zm0 73.616c-18.6 0-33.731-15.133-33.731-33.732s15.131-33.731 33.731-33.731 33.733 15.132 33.733 33.732-15.133 33.731-33.733 33.731z"/><path class="st3" d="M253.905 338.031c-14.413 0-26.137 11.725-26.137 26.137s11.725 26.137 26.137 26.137 26.136-11.725 26.136-26.137-11.724-26.137-26.136-26.137z"/><path class="st2" d="M280.277 397.9H223.74c-25.978 0-47.114 21.135-47.114 47.114V512h6.152v-66.986c0-22.586 18.376-40.961 40.961-40.961h56.537c22.586 0 40.961 18.375 40.961 40.961V512h6.153v-66.986c.001-25.979-21.135-47.114-47.113-47.114z"/><path class="st1" d="M280.276 411.647H223.74c-18.398 0-33.368 14.969-33.368 33.367V512h123.27v-66.986c.001-18.399-14.968-33.367-33.366-33.367z"/><path class="st2" d="M198.625 469.779h6.153V512h-6.153zM299.22 469.779h6.152V512h-6.152zM418.258 324.284c-21.993 0-39.886 17.892-39.886 39.884s17.893 39.884 39.886 39.885c21.993 0 39.884-17.892 39.884-39.884s-17.891-39.885-39.884-39.885zm0 73.616c-18.6 0-33.733-15.133-33.733-33.732s15.133-33.731 33.733-33.731 33.731 15.132 33.731 33.732-15.131 33.731-33.731 33.731z"/><path class="st3" d="M418.258 338.031c-14.413 0-26.139 11.725-26.139 26.137s11.726 26.137 26.139 26.137c14.412 0 26.136-11.725 26.136-26.137.001-14.412-11.724-26.137-26.136-26.137z"/><path class="st2" d="M444.629 397.9h-56.535c-25.98 0-47.116 21.135-47.116 47.114V512h6.153v-66.986c0-22.586 18.375-40.961 40.963-40.961h56.535c22.586 0 40.961 18.375 40.961 40.961V512h6.153v-66.986c0-25.979-21.136-47.114-47.114-47.114z"/><path class="st1" d="M444.63 411.647h-56.537c-18.397 0-33.366 14.969-33.366 33.367V512h123.269v-66.986c0-18.399-14.969-33.367-33.366-33.367z"/><path class="st2" d="M362.977 469.779h6.153V512h-6.153zM463.572 469.779h6.152V512h-6.152z"/><path class="st1" d="M282.443 114.639h-60.87c-25.595 2.973-45.817 23.83-47.704 49.713h156.277c-1.886-25.883-22.108-46.74-47.703-49.713z"/><path class="st2" d="M282.368 34.643c-8.018-8.016-18.676-12.43-30.012-12.429-23.403.001-42.443 19.042-42.443 42.445 0 11.337 4.414 21.995 12.431 30.011 8.018 8.016 18.674 12.43 30.012 12.429 23.403-.001 42.443-19.042 42.443-42.445 0-11.337-4.414-21.995-12.431-30.011zm-30.012 66.303c-9.694.001-18.809-3.774-25.662-10.628-6.854-6.854-10.629-15.966-10.629-25.66 0-20.01 16.281-36.291 36.291-36.292 9.693-.001 18.806 3.774 25.662 10.628 6.854 6.854 10.629 15.967 10.629 25.66-.001 20.01-16.281 36.291-36.291 36.292z"/><path class="st3" d="M272.593 44.069c-5.498-5.498-12.808-8.526-20.584-8.526-16.054.001-29.114 13.062-29.114 29.114 0 7.776 3.028 15.087 8.527 20.585 5.498 5.498 12.809 8.526 20.585 8.525 16.053-.001 29.113-13.061 29.113-29.114 0-7.775-3.028-15.086-8.527-20.584z"/><path class="st4" d="m239.734 104.022 7.62 17.991h10.142l7.481-17.991zM257.505 122.021h-10.152l-8.081 42.33h25.841c-3.527-20.18-7.608-42.33-7.608-42.33z"/><path class="st2" d="m235.09 100.946 10.228 24.143h14.23l10.04-24.143H235.09zm20.352 17.991h-6.051l-5.013-11.838h15.988l-4.924 11.838z"/><path class="st2" d="M268.144 163.822c-3.489-19.963-7.573-42.137-7.613-42.358l-.464-2.519h-15.26l-9.255 48.483h33.223l-.631-3.606zm-25.153-2.547 6.906-36.178h5.045a5433.692 5433.692 0 0 1 6.509 36.178h-18.46z"/><path class="st2" d="M276.209 100.939h-48.402c-35.56 0-65.123 27.771-67.302 63.224l6.141.378c1.98-32.214 28.846-57.449 61.162-57.449h48.402c32.315 0 59.181 25.235 61.162 57.449l6.141-.378c-2.18-35.453-31.744-63.224-67.304-63.224zM142.518 181.778v120.105h6.153V187.931h206.675v113.952h6.153V181.778z"/><path class="st0" d="M155.849 195.109h192.319v106.775H155.849z"/><path class="st2" d="M170.794 210.248v91.635h6.152v-85.482H327.07v85.482h6.153v-91.635zM107.397 161.272v26.658h289.225v-26.658H107.397zm283.072 20.506H113.55v-14.353h276.919v14.353zM484.739 0H379.933c-13.557 0-24.586 11.029-24.586 24.585v47.584l-21.708 24.676h151.102c13.557 0 24.586-11.029 24.586-24.585V24.585C509.326 11.029 498.296 0 484.739 0zm18.434 72.259c0 10.164-8.27 18.433-18.434 18.433H347.245l14.362-16.324-.086-1.67c-.01-.146-.022-.291-.022-.439V24.585c0-10.164 8.27-18.433 18.434-18.433H484.74c10.164 0 18.434 8.269 18.434 18.433v47.674z"/><path class="st3" d="M484.739 13.331H379.933c-6.205 0-11.254 5.049-11.254 11.255l.006 47.657.23 4.686-5.794 6.586h121.618c6.207 0 11.256-5.049 11.256-11.255V24.585c0-6.205-5.049-11.254-11.256-11.254z"/><path class="st2" d="M398.879 45.346h17.482v6.153h-17.482zM426.618 45.346H444.1v6.153h-17.482zM454.357 45.346h17.482v6.153h-17.482zM145.224 67.064a46.81 46.81 0 0 0 .986-9.541C146.209 25.805 114.014 0 74.441 0 34.869 0 2.674 25.805 2.674 57.524c0 31.718 32.195 57.523 71.767 57.523 18.458 0 35.812-5.528 49.168-15.613a19.369 19.369 0 0 0 11.206 3.562c10.741 0 19.481-8.74 19.481-19.482 0-6.696-3.49-12.909-9.072-16.45zm-10.409 29.78a13.286 13.286 0 0 1-9.079-3.592l-1.959-1.828-2.081 1.692c-12.501 10.175-29.285 15.779-47.256 15.779-36.179 0-65.614-23.045-65.614-51.371S38.261 6.153 74.44 6.153c36.181 0 65.616 23.045 65.616 51.371 0 3.471-.449 6.948-1.336 10.333l-.651 2.488 2.333 1.082c4.702 2.18 7.741 6.924 7.741 12.087.001 7.35-5.977 13.33-13.328 13.33z"/><path class="st0" d="m137.386 77.941-7.783-3.605 2.173-8.297a33.648 33.648 0 0 0 1.102-8.515c0-24.368-26.215-44.193-58.436-44.193-32.223 0-58.438 19.825-58.438 44.193s26.215 44.193 58.438 44.193c16.325 0 31.5-5.031 42.726-14.168l6.934-5.641 6.535 6.097c.811.758 2.197 1.661 4.178 1.661a6.158 6.158 0 0 0 6.152-6.152c0-2.378-1.406-4.565-3.581-5.573z"/><path class="st2" d="M177.649 68.131c-7.351 0-13.329 5.98-13.329 13.331 0 7.35 5.978 13.33 13.329 13.33 7.35 0 13.331-5.98 13.331-13.33 0-7.351-5.98-13.331-13.331-13.331zm0 20.508c-3.958 0-7.176-3.22-7.176-7.178 0-3.958 3.219-7.178 7.176-7.178s7.178 3.22 7.178 7.178c0 3.958-3.22 7.178-7.178 7.178zM39.474 55.993h17.48v6.153h-17.48zM67.21 55.993h17.483v6.153H67.21zM94.95 55.993h17.482v6.153H94.95z"/></svg>