<svg xmlns="http://www.w3.org/2000/svg" viewBox="0 0 48 48"><defs><style>.cls-9{fill:#190402}</style></defs><g id="_26-support" data-name="26-support"><path d="M47 3v22a2.006 2.006 0 0 1-2 2h-5l-6 6v-6H23a2.006 2.006 0 0 1-2-2V3a2.006 2.006 0 0 1 2-2h22a2.006 2.006 0 0 1 2 2zm-4 13v-4h-2.29a6.77 6.77 0 0 0-.55-1.33l1.62-1.62-2.83-2.83-1.62 1.62A6.77 6.77 0 0 0 36 7.29V5h-4v2.29a6.77 6.77 0 0 0-1.33.55l-1.62-1.62-2.83 2.83 1.62 1.62a6.77 6.77 0 0 0-.55 1.33H25v4h2.29a6.77 6.77 0 0 0 .55 1.33l-1.62 1.62 2.83 2.83 1.62-1.62a6.77 6.77 0 0 0 1.33.55V23h4v-2.29a6.77 6.77 0 0 0 1.33-.55l1.62 1.62 2.83-2.83-1.62-1.62a6.77 6.77 0 0 0 .55-1.33z" style="fill:#ff8257"/><path d="M43 12v4h-2.29a6.77 6.77 0 0 1-.55 1.33l1.62 1.62-2.83 2.83-1.62-1.62a6.77 6.77 0 0 1-1.33.55V23h-4v-2.29a6.77 6.77 0 0 1-1.33-.55l-1.62 1.62-2.83-2.83 1.62-1.62a6.77 6.77 0 0 1-.55-1.33H25v-4h2.29a6.77 6.77 0 0 1 .55-1.33l-1.62-1.62 2.83-2.83 1.62 1.62A6.77 6.77 0 0 1 32 7.29V5h4v2.29a6.77 6.77 0 0 1 1.33.55l1.62-1.62 2.83 2.83-1.62 1.62a6.77 6.77 0 0 1 .55 1.33z" style="fill:#cdd2e1"/><path d="M9 44v1a2.006 2.006 0 0 1-2 2H1V31h6a2.006 2.006 0 0 1 2 2z" style="fill:#b5efff"/><path d="m24 40 3 3h10a2.006 2.006 0 0 1 2 2 2.015 2.015 0 0 1-2 2H16l-3-3H9V33h9a2.006 2.006 0 0 1 2 2v1h5a2.006 2.006 0 0 1 2 2 2.015 2.015 0 0 1-2 2z" style="fill:#ffcdbe"/><circle cx="34" cy="14" r="3" style="fill:#f2f6fc"/><path d="M3 6a2 2 0 0 0-2 2v12a2 2 0 0 0 2 2h5l4 4v-4h9V6z" style="fill:#ffde91"/><path style="fill:#ffbeaa" d="M9 33h3v11H9z"/><path style="fill:#ffac5a" d="M18 6h3v16h-3z"/><path class="cls-9" d="M37 42h-9.586l-1.239-1.239a2.837 2.837 0 0 0 .933-.635A2.944 2.944 0 0 0 28 38a3 3 0 0 0-3-3h-4a3 3 0 0 0-3-3H9.816A3 3 0 0 0 7 30H1a1 1 0 0 0-1 1v16a1 1 0 0 0 1 1h6a3 3 0 0 0 3-3h2.586l2.707 2.707A1 1 0 0 0 16 48h21a3.015 3.015 0 0 0 3-3 3 3 0 0 0-3-3zM8 45a1 1 0 0 1-1 1H2V32h5a1 1 0 0 1 1 1zm29.694.713A.965.965 0 0 1 37 46H16.414l-2.707-2.707A1 1 0 0 0 13 43h-3v-9h8a1 1 0 0 1 1 1v1a1 1 0 0 0 1 1h5a1 1 0 0 1 1 1 .978.978 0 0 1-.306.713A.965.965 0 0 1 25 39h-6v2h4.586l2.707 2.707A1 1 0 0 0 27 44h10a1 1 0 0 1 1 1 .978.978 0 0 1-.306.713z"/><path class="cls-9" d="M4 34h2v2H4zM45 0H23a3 3 0 0 0-3 3v22a3 3 0 0 0 3 3h10v5a1 1 0 0 0 .617.924A.987.987 0 0 0 34 34a1 1 0 0 0 .707-.293L40.414 28H45a3 3 0 0 0 3-3V3a3 3 0 0 0-3-3zm1 25a1 1 0 0 1-1 1h-5a1 1 0 0 0-.707.293L35 30.586V27a1 1 0 0 0-1-1H23a1 1 0 0 1-1-1V3a1 1 0 0 1 1-1h22a1 1 0 0 1 1 1zM3 23h4.586l3.707 3.707A1 1 0 0 0 12 27a.987.987 0 0 0 .383-.076A1 1 0 0 0 13 26v-3h5v-2h-6a1 1 0 0 0-1 1v1.586l-2.293-2.293A1 1 0 0 0 8 21H3a1 1 0 0 1-1-1V8a1 1 0 0 1 1-1h15V5H3a3 3 0 0 0-3 3v12a3 3 0 0 0 3 3z"/><path class="cls-9" d="M43 11h-1.58l-.051-.124 1.118-1.119a1 1 0 0 0 0-1.414l-2.83-2.83a1 1 0 0 0-1.414 0l-1.118 1.118L37 6.58V5a1 1 0 0 0-1-1h-4a1 1 0 0 0-1 1v1.58l-.125.051-1.118-1.118a1.029 1.029 0 0 0-1.414 0l-2.83 2.83a1 1 0 0 0 0 1.414l1.118 1.119-.051.124H25a1 1 0 0 0-1 1v4a1 1 0 0 0 1 1h1.58l.051.124-1.118 1.119a1 1 0 0 0 0 1.414l2.83 2.83a1 1 0 0 0 1.414 0l1.118-1.118.125.051V23a1 1 0 0 0 1 1h4a1 1 0 0 0 1-1v-1.58l.125-.051 1.118 1.118a1.029 1.029 0 0 0 1.414 0l2.83-2.83a1 1 0 0 0 0-1.414l-1.118-1.119.051-.124H43a1 1 0 0 0 1-1v-4a1 1 0 0 0-1-1zm-1 4h-1.29a1 1 0 0 0-.959.714 5.745 5.745 0 0 1-.468 1.136 1 1 0 0 0 .17 1.187l.913.913-1.416 1.416-.913-.913a1 1 0 0 0-1.186-.171 5.648 5.648 0 0 1-1.136.469 1 1 0 0 0-.715.959V22h-2v-1.29a1 1 0 0 0-.715-.959 5.648 5.648 0 0 1-1.136-.469 1 1 0 0 0-1.186.171l-.913.913-1.416-1.416.913-.913a1 1 0 0 0 .17-1.187 5.745 5.745 0 0 1-.468-1.136A1 1 0 0 0 27.29 15H26v-2h1.29a1 1 0 0 0 .959-.714 5.745 5.745 0 0 1 .468-1.136 1 1 0 0 0-.17-1.187l-.913-.913 1.416-1.416.913.913a1 1 0 0 0 1.186.171 5.648 5.648 0 0 1 1.136-.469A1 1 0 0 0 33 7.29V6h2v1.29a1 1 0 0 0 .715.959 5.648 5.648 0 0 1 1.136.469 1 1 0 0 0 1.186-.171l.913-.913 1.416 1.416-.913.913a1 1 0 0 0-.17 1.187 5.745 5.745 0 0 1 .468 1.136 1 1 0 0 0 .959.714H42z"/><path class="cls-9" d="M34 16a2 2 0 0 1 0-4v-2a4 4 0 1 0 4 4h-2a2 2 0 0 1-2 2zM4 9h2v2H4zM8 9h10v2H8zM4 13h14v2H4zM4 17h14v2H4z"/></g></svg>